<?xml version="1.0" encoding="UTF-8"?>
<svg version="1.1" xmlns="http://www.w3.org/2000/svg" width="2000" height="298">
<path d="M0 0 C16.17 0 32.34 0 49 0 C49.66 35.97 50.32 71.94 51 109 C56.28 106.69 61.56 104.38 67 102 C94.35153862 94.18527468 117.76963827 98.16361435 144 108 C144.495 54.54 144.495 54.54 145 0 C161.83 0 178.66 0 196 0 C196.08021762 24.1945251 196.08021762 24.1945251 196.09765625 34.61914062 C196.10954711 41.69347181 196.12351412 48.76775055 196.15087891 55.84204102 C196.17283369 61.55441037 196.18461564 67.26672336 196.18975449 72.9791317 C196.19341007 75.14327568 196.20054653 77.30741708 196.21146011 79.47153664 C196.26160497 89.84070757 196.18594918 100.12792503 195.13232422 110.4519043 C195.05723192 111.19580571 194.98213963 111.93970713 194.9047718 112.70615101 C193.64010693 123.61458375 189.99034645 133.95639394 184.72265625 143.5703125 C183.28629666 148.39958635 186.38848459 152.94090081 188.375 157.3125 C190.4591505 162.28239735 191.99037183 167.21187293 193.25 172.4375 C193.41290527 173.09210205 193.57581055 173.7467041 193.74365234 174.42114258 C196.92251982 188.34431187 196.13287773 202.96465254 196.09765625 217.14453125 C196.09578784 219.36797555 196.09436594 221.59142026 196.09336853 223.81486511 C196.08957664 229.62620204 196.07977531 235.4375134 196.06866455 241.24884033 C196.05656525 248.24331382 196.05203233 255.23779593 196.04621124 262.23227692 C196.03656135 272.82153565 196.01738161 283.41073844 196 294 C179.5 294 163 294 146 294 C145.93941406 287.71195312 145.87882813 281.42390625 145.81640625 274.9453125 C145.77583959 270.92577559 145.73502982 266.906244 145.69335938 262.88671875 C145.62745964 256.52785252 145.56238684 250.16898644 145.50268555 243.81005859 C145.45441515 238.67472164 145.40206369 233.53944007 145.34705925 228.40417099 C145.32691524 226.45971967 145.30816209 224.51525335 145.29092598 222.57077408 C145.18149127 210.35242621 144.79524906 198.19366311 144 186 C139.94207164 187.33319379 136.0097998 188.80676224 132.0625 190.4375 C107.5254122 199.75607941 81.05102472 197.87326171 57 188 C55.02 187.01 53.04 186.02 51 185 C50.67 220.97 50.34 256.94 50 294 C33.5 294 17 294 0 294 C-0.16043524 267.02014092 -0.16043524 267.02014092 -0.1953125 255.421875 C-0.21912176 247.54188107 -0.24713148 239.662075 -0.30175781 231.78222656 C-0.34557174 225.42146129 -0.36921154 219.06089779 -0.37950897 212.69999313 C-0.38683701 210.28659265 -0.40114467 207.87320183 -0.42292023 205.45988846 C-0.56993033 188.4746628 -0.21956829 171.66885413 7.8125 156.25 C10.24669142 151.50744017 11.5827297 148.31344972 10 143 C9.11358501 140.89442348 8.17115593 138.81194205 7.1875 136.75 C-0.17232639 119.76893109 -0.55547771 103.23102206 -0.390625 84.9609375 C-0.38314662 82.49802108 -0.37746126 80.03509862 -0.37347412 77.57217407 C-0.35834357 71.1508281 -0.31917259 64.72985529 -0.2746582 58.30865479 C-0.22615818 50.5715811 -0.20811153 42.83438129 -0.18484497 35.09719849 C-0.14631227 23.39787435 -0.06957006 11.69936582 0 0 Z " fill="#FE851B" transform="translate(19,2)"/>
<path d="M0 0 C14.85 0 29.7 0 45 0 C45 22.98543969 45 22.98543969 44.78125 31.578125 C44.75905396 32.52645203 44.73685791 33.47477905 44.71398926 34.45184326 C44.64485697 37.38461972 44.57251435 40.31730544 44.5 43.25 C44.45160623 45.27864068 44.40342817 47.30728651 44.35546875 49.3359375 C44.23945233 54.22402105 44.12056403 59.11202659 44 64 C44.45528076 63.31728027 44.91056152 62.63456055 45.37963867 61.93115234 C46.29579956 60.584646 46.29579956 60.584646 47.23046875 59.2109375 C47.83012451 58.32196777 48.42978027 57.43299805 49.04760742 56.51708984 C55.27591057 48.48735301 66.1625501 44.28104384 76 43 C89.75579424 42.11393511 100.32238032 43.6684905 111 53 C111.58265625 53.45503906 112.1653125 53.91007812 112.765625 54.37890625 C121.71136726 62.09561635 127.68094476 76.487081 129 88 C130.33696955 106.84327171 128.59610059 124.25919769 116.05078125 139.34375 C108.04137977 147.77801167 99.27093332 152.30520353 87.60546875 153.28515625 C75.1909084 153.5999687 63.46625723 151.3216973 53.80859375 143.14453125 C49.56002311 139.09939125 46.79815195 135.12685678 44 130 C43.85377197 130.60062256 43.70754395 131.20124512 43.55688477 131.82006836 C42.89574368 134.52678678 42.22919648 137.23214485 41.5625 139.9375 C41.33240234 140.88302734 41.10230469 141.82855469 40.86523438 142.80273438 C40.64287109 143.70185547 40.42050781 144.60097656 40.19140625 145.52734375 C39.98717041 146.35999756 39.78293457 147.19265137 39.57250977 148.05053711 C39 150 39 150 38 151 C35.32212027 151.09512944 32.67011131 151.12555279 29.99194336 151.11352539 C29.15299026 151.11367142 28.31403717 151.11381744 27.44966125 151.1139679 C24.66302956 151.1132685 21.87646384 151.10547485 19.08984375 151.09765625 C17.16313209 151.09579217 15.23641995 151.09436822 13.30970764 151.09336853 C8.22812603 151.08954259 3.1465728 151.07971166 -1.93499756 151.06866455 C-7.11616634 151.05845206 -12.29733969 151.05387126 -17.47851562 151.04882812 C-27.65235625 151.03808946 -37.82617577 151.02101213 -48 151 C-49.50499009 146.71006667 -51.00314637 142.41777842 -52.5 138.125 C-53.14388672 136.29001953 -53.14388672 136.29001953 -53.80078125 134.41796875 C-54.20683594 133.25136719 -54.61289062 132.08476562 -55.03125 130.8828125 C-55.40830078 129.80402832 -55.78535156 128.72524414 -56.17382812 127.61376953 C-57 125 -57 125 -57 123 C-77.13 123 -97.26 123 -118 123 C-118.66 125.97 -119.32 128.94 -120 132 C-122.31 138.27 -124.62 144.54 -127 151 C-143.5 151 -160 151 -177 151 C-170.1148909 131.4921909 -170.1148909 131.4921909 -167.03125 123.625 C-166.6776239 122.71589371 -166.3239978 121.80678741 -165.95965576 120.87013245 C-165.20199249 118.92307656 -164.44316313 116.97647408 -163.68322754 115.03030396 C-161.60117588 109.6980672 -159.52800131 104.36237566 -157.453125 99.02734375 C-157.0160321 97.90424301 -156.57893921 96.78114227 -156.12860107 95.62400818 C-150.80786283 81.94760252 -145.52964212 68.25480792 -140.25 54.5625 C-138.87434222 50.99497836 -137.49861927 47.42748196 -136.12261963 43.86009216 C-135.30217673 41.73296174 -134.48195866 39.60574458 -133.66204834 37.47840881 C-130.12664419 28.3115814 -126.56107392 19.15704722 -123 10 C-99.24 10 -75.48 10 -51 10 C-45.37536499 22.37419702 -45.37536499 22.37419702 -43.71435547 26.70361328 C-43.33492294 27.68756073 -42.95549042 28.67150818 -42.56455994 29.68527222 C-41.97186058 31.23711716 -41.97186058 31.23711716 -41.3671875 32.8203125 C-40.93712906 33.93793976 -40.50707062 35.05556702 -40.0639801 36.20706177 C-38.66467343 39.84523718 -37.26987323 43.48512281 -35.875 47.125 C-34.90061777 49.66143946 -33.92512796 52.1974522 -32.94946289 54.73339844 C-32.45374551 56.02197069 -31.95803325 57.31054492 -31.46232605 58.59912109 C-31.09227983 59.56102356 -31.09227983 59.56102356 -30.71475792 60.5423584 C-29.96248317 62.49832518 -29.21065244 64.45446212 -28.4589386 66.41064453 C-23.47913632 79.36770409 -18.46141204 92.30998519 -13.4375 105.25 C-11.91517436 109.17180119 -10.39302893 113.09367226 -8.87109375 117.015625 C-8.52824341 117.89906586 -8.18539307 118.78250671 -7.83215332 119.69271851 C-5.20819727 126.45675325 -2.59876989 133.22624538 0 140 C0.14496559 132.51510261 0.2870367 125.03015399 0.42724609 117.54516602 C0.47510738 115.00739342 0.52359257 112.46963251 0.57275391 109.93188477 C1.06201895 84.63488509 0.94145543 59.39583255 0.53643799 34.10028076 C0.46415474 29.56193394 0.39411736 25.02355193 0.32368469 20.48517609 C0.21746996 13.65675625 0.10847932 6.82838592 0 0 Z M-88 42 C-90.24581205 47.99427464 -92.48738409 53.99012246 -94.72607422 59.98706055 C-95.48747777 62.0251822 -96.24983612 64.06294742 -97.01318359 66.1003418 C-98.11289205 69.03600421 -99.20911269 71.97294908 -100.3046875 74.91015625 C-100.6443454 75.81459976 -100.9840033 76.71904327 -101.33395386 77.65089417 C-101.65413483 78.51125778 -101.9743158 79.3716214 -102.30419922 80.25805664 C-102.58399628 81.00640274 -102.86379333 81.75474884 -103.15206909 82.52577209 C-104.22116001 85.64533592 -105.09406011 88.82921038 -106 92 C-93.79 92 -81.58 92 -69 92 C-70.94118233 84.88233147 -72.90049357 78.20496167 -75.57421875 71.39453125 C-75.90291458 70.54444992 -76.23161041 69.69436859 -76.57026672 68.81852722 C-77.60425156 66.14784207 -78.64571676 63.48015141 -79.6875 60.8125 C-80.3969852 58.9839182 -81.10597376 57.15514362 -81.81445312 55.32617188 C-83.53724886 50.88187053 -85.26675184 46.44023482 -87 42 C-87.33 42 -87.66 42 -88 42 Z M48.125 85.9375 C43.96764029 91.92898899 43.29769749 96.80139923 44 104 C45.23022169 109.53599759 47.37678761 113.55718226 52 117 C59.68354185 120.45826665 66.38808719 120.68512199 74.25 117.8125 C79.16370999 114.57391842 82.18526513 110.55662183 84 105 C84.832024 97.35698888 84.84119349 91.14962416 80 85 C74.20474729 79.63939124 69.82341392 78.53587135 62.04296875 78.6875 C56.19046191 79.28852766 52.02196565 81.56612115 48.125 85.9375 Z " fill="#3A3A3A" transform="translate(450,78)"/>
<path d="M0 0 C14.85 0 29.7 0 45 0 C45 49.83 45 99.66 45 151 C30.15 151 15.3 151 0 151 C0 144.73 0 138.46 0 132 C-1.32 133.98 -2.64 135.96 -4 138 C-12.7333369 147.40513204 -22.45135321 152.23610826 -35.22265625 153.2578125 C-46.76283263 153.64120706 -57.11259182 151.59756686 -66.01171875 143.90234375 C-66.66785156 143.27457031 -67.32398438 142.64679688 -68 142 C-68.93779297 141.10474609 -68.93779297 141.10474609 -69.89453125 140.19140625 C-81.44511928 128.08719527 -84.50748782 112.54908789 -84.34936523 96.37841797 C-83.89896667 80.28315804 -78.64967424 65.81529935 -67.3203125 54.12109375 C-57.54754519 45.18740242 -48.10045669 42.29035415 -35.01171875 42.7109375 C-23.24568459 43.37688664 -12.20389265 47.38421601 -4 56 C-3.05774042 57.37451405 -2.15446071 58.77659999 -1.29296875 60.203125 C-0.64171021 61.27288574 -0.64171021 61.27288574 0.02270508 62.36425781 C0.50646606 63.1739502 0.50646606 63.1739502 1 64 C0.96970703 62.73631592 0.93941406 61.47263184 0.90820312 60.1706543 C0.79411997 55.38636356 0.68303283 50.60200677 0.57275391 45.81762695 C0.52504153 43.76487406 0.47656554 41.71213874 0.42724609 39.65942383 C0.35562985 36.67273432 0.28695853 33.68598783 0.21875 30.69921875 C0.19687622 29.8129631 0.17500244 28.92670746 0.15246582 28.01359558 C-0.05549759 18.67014908 0 9.35478937 0 0 Z M-35.58984375 85.65625 C-39.43412405 90.68256663 -39.68294389 95.68747248 -39.41796875 101.875 C-38.6354361 107.72571139 -36.50826266 111.86700032 -32.1875 115.875 C-26.39232572 119.73844952 -21.28294405 120.48994777 -14.49609375 119.6015625 C-8.87043833 118.24577074 -5.12598468 115.4146987 -1.5625 110.9375 C1.65476039 104.88905047 1.48837746 98.73780016 1 92 C-0.91861528 86.13756442 -4.63956837 83.11417884 -9.76953125 79.88671875 C-19.19434856 76.13989996 -28.83972296 78.62418313 -35.58984375 85.65625 Z " fill="#3A3A3A" transform="translate(1803,78)"/>
<path d="M0 0 C10.86469883 9.18075147 15.51652208 20.15148181 17.24609375 34.02734375 C17.4154438 36.89367953 17.47589954 39.7582963 17.52734375 42.62890625 C17.54575317 43.42839691 17.5641626 44.22788757 17.58312988 45.05160522 C17.66115412 48.44313321 17.72950172 51.8348375 17.79833984 55.2265625 C17.85026037 57.71493692 17.9074107 60.20315392 17.96484375 62.69140625 C17.97841919 63.45297028 17.99199463 64.2145343 18.00598145 64.99917603 C18.09413552 68.78422512 18.34815435 72.34379275 19.24609375 76.02734375 C22.21609375 77.01734375 22.21609375 77.01734375 25.24609375 78.02734375 C24.91609375 84.29734375 24.58609375 90.56734375 24.24609375 97.02734375 C17.29922591 98.59538676 10.85899413 99.36611 3.74609375 99.33984375 C2.43705078 99.36401367 2.43705078 99.36401367 1.1015625 99.38867188 C-6.30863975 99.39416091 -13.18184624 98.12398767 -19.62890625 94.33984375 C-25.27960925 88.1905493 -26.62422795 81.11346208 -27.75390625 73.02734375 C-28.03363281 73.58421875 -28.31335937 74.14109375 -28.6015625 74.71484375 C-34.2075601 85.38606748 -41.03037005 92.69631048 -52.46484375 97.0625 C-65.82476213 100.99727048 -81.88264821 100.49581447 -94.6015625 94.73828125 C-101.10890251 91.15397321 -105.05422719 87.19216017 -107.85546875 80.328125 C-110.12858007 71.97691168 -110.42062056 60.57832304 -106.125 52.87890625 C-99.48387346 43.91054734 -89.55687477 39.91134939 -78.75390625 38.02734375 C-81.57980476 34.99382821 -84.37785337 32.87388612 -87.95703125 30.79296875 C-89.4265625 29.93251953 -89.4265625 29.93251953 -90.92578125 29.0546875 C-91.9415625 28.46816406 -92.95734375 27.88164062 -94.00390625 27.27734375 C-95.03515625 26.67535156 -96.06640625 26.07335937 -97.12890625 25.453125 C-99.66741878 23.97232602 -102.20910761 22.49730482 -104.75390625 21.02734375 C-98.74537883 8.0812422 -83.70488669 -0.968637 -70.9453125 -5.90625 C-49.4775873 -13.07967592 -19.10456156 -13.68482778 0 0 Z M-66.75390625 36.02734375 C-62.40280864 38.20289256 -56.38899741 36.89620422 -51.62890625 36.71484375 C-50.4171875 36.67939453 -49.20546875 36.64394531 -47.95703125 36.60742188 C-37.04572628 36.68395026 -37.04572628 36.68395026 -27.75390625 32.02734375 C-27.76313327 29.48020971 -27.76313327 29.48020971 -28.75390625 27.02734375 C-40.52452929 19.08901659 -57.72681717 27.91208185 -66.75390625 36.02734375 Z M-27.75390625 48.02734375 C-28.72328125 48.28128906 -29.69265625 48.53523438 -30.69140625 48.796875 C-39.16427242 50.98173566 -47.59336973 52.80843261 -56.23046875 54.21875 C-60.62339306 55.2268823 -64.64833633 56.26848251 -67.12890625 60.21484375 C-68.01002842 62.07884427 -68.01002842 62.07884427 -66.81640625 63.96484375 C-64.08681258 66.69443742 -62.18337539 66.81357952 -58.41015625 67.05859375 C-48.53074155 66.94236534 -39.06137376 64.74405074 -31.54296875 58.0625 C-28.87411825 55.24585631 -28.87411825 55.24585631 -26.75390625 52.02734375 C-26.98689339 49.82413528 -26.98689339 49.82413528 -27.75390625 48.02734375 Z " fill="#3A3A3A" transform="translate(1106.75390625,130.97265625)"/>
<path d="M0 0 C9.46241336 8.59357741 13.68294767 20.55271749 14.47146606 33.09332275 C14.72771119 38.85113764 14.8147049 44.61260973 14.90234375 50.375 C14.94648469 52.96026036 14.99324846 55.54540716 15.04515076 58.13052368 C15.07676084 59.7275824 15.10375392 61.32474146 15.12538147 62.92196655 C15.19619893 66.72749991 15.43098045 70.29769843 16.33984375 74 C19.30984375 74.99 19.30984375 74.99 22.33984375 76 C22.00984375 82.27 21.67984375 88.54 21.33984375 95 C14.39297591 96.56804301 7.95274413 97.33876625 0.83984375 97.3125 C-0.46919922 97.33666992 -0.46919922 97.33666992 -1.8046875 97.36132812 C-9.21488975 97.36681716 -16.08809624 96.09664392 -22.53515625 92.3125 C-28.18585925 86.16320555 -29.53047795 79.08611833 -30.66015625 71 C-30.93988281 71.556875 -31.21960937 72.11375 -31.5078125 72.6875 C-37.1138101 83.35872373 -43.93662005 90.66896673 -55.37109375 95.03515625 C-68.73101213 98.96992673 -84.78889821 98.46847072 -97.5078125 92.7109375 C-104.01326105 89.12767129 -107.96847735 85.16598506 -110.7578125 78.296875 C-112.94528392 70.30455519 -113.14526237 60.04635854 -109.72265625 52.375 C-103.20856659 41.77610826 -93.00083898 39.01954374 -81.66015625 36 C-84.99768438 32.28224715 -88.70249331 29.97999552 -92.97265625 27.5 C-93.61138672 27.12230469 -94.25011719 26.74460938 -94.90820312 26.35546875 C-99.13547587 23.8627912 -103.39527476 21.42761689 -107.66015625 19 C-99.39931209 3.94569847 -83.35439883 -5.24153817 -67.375 -9.97265625 C-45.25513864 -15.23928991 -18.66141236 -14.03031296 0 0 Z M-69.66015625 34 C-65.30905864 36.17554881 -59.29524741 34.86886047 -54.53515625 34.6875 C-53.3234375 34.65205078 -52.11171875 34.61660156 -50.86328125 34.58007812 C-40.15148392 34.56020224 -40.15148392 34.56020224 -30.66015625 30.375 C-30.33015625 29.92125 -30.00015625 29.4675 -29.66015625 29 C-31.02999128 25.83884224 -31.64922005 25.0072908 -34.66015625 23 C-48.43829392 21.4222106 -59.41545863 24.79012032 -69.66015625 34 Z M-30.66015625 46 C-31.62953125 46.25394531 -32.59890625 46.50789063 -33.59765625 46.76953125 C-42.07052242 48.95439191 -50.49961973 50.78108886 -59.13671875 52.19140625 C-62.9118425 53.05775948 -66.84354188 54.18338563 -69.66015625 57 C-69.70079457 58.66617115 -69.70287725 60.33388095 -69.66015625 62 C-64.44341553 64.65235066 -60.70094966 65.3948342 -54.84765625 64.5 C-54.14842041 64.39961426 -53.44918457 64.29922852 -52.72875977 64.19580078 C-43.38949813 62.6760825 -36.99100062 59.08820859 -30.7421875 51.96484375 C-29.42429334 50.03869875 -29.42429334 50.03869875 -29.984375 47.75390625 C-30.20738281 47.17511719 -30.43039062 46.59632813 -30.66015625 46 Z " fill="#3A3A3A" transform="translate(1599.66015625,133)"/>
<path d="M0 0 C15.84 0 31.68 0 48 0 C48 33.33 48 66.66 48 101 C93.54 100.01 93.54 100.01 140 99 C139.34 104.28 138.68 109.56 138 115 C137.67 123.58 137.34 132.16 137 141 C91.79 141 46.58 141 0 141 C0 94.47 0 47.94 0 0 Z " fill="#3A3A3A" transform="translate(1164,88)"/>
<path d="M0 0 C0.63679687 0.49886719 1.27359375 0.99773437 1.9296875 1.51171875 C9.61156782 8.28884427 15.33722729 20.37475897 16.21704102 30.49707031 C16.96130692 47.77871058 15.64279235 62.81865451 3.89453125 76.44140625 C-9.9476475 90.90302846 -28.10783166 94.80945918 -47.60131836 95.28320312 C-65.63837046 95.47811049 -83.90933692 93.31401425 -98 81 C-98.59296875 80.52304688 -99.1859375 80.04609375 -99.796875 79.5546875 C-110.1495025 70.43887833 -114.15505152 55.98467284 -115.27734375 42.72265625 C-115.72746475 27.86866309 -111.84033685 13.74585946 -102.3125 2.1875 C-77.90482235 -23.37803713 -26.27819468 -21.01339958 0 0 Z M-68.875 25.9375 C-73.21507137 32.19230873 -73.64876195 37.54970152 -73 45 C-71.92164262 50.72509737 -69.43964533 54.07833793 -65.01171875 57.7734375 C-57.45542703 62.38057459 -47.98129341 61.9409823 -39.4921875 60.60546875 C-33.81258751 58.87931581 -30.29851524 54.77873537 -27 50 C-24.21357542 44.18485306 -24.16808433 38.04782517 -26 31.9375 C-28.3033492 26.37655692 -32.99491353 22.5733437 -38.23828125 19.828125 C-48.69595689 16.69230147 -61.33995019 17.60588778 -68.875 25.9375 Z " fill="#3A3A3A" transform="translate(795,136)"/>
<path d="M0 0 C0.99 0.99 1.98 1.98 3 3 C-8.385 14.385 -8.385 14.385 -20 26 C-23.774375 24.3603125 -23.774375 24.3603125 -27.625 22.6875 C-40.01869928 17.51106295 -55.9058877 12.3045543 -69.1875 17.1875 C-72.23190977 19.14945297 -73.49894687 20.73300201 -75 24 C-73.28221897 27.31646242 -73.28221897 27.31646242 -69.8125 27.75 C-65.93464792 28.10316153 -62.19077953 27.85592246 -58.3125 27.5625 C-17.36648366 24.49767842 -17.36648366 24.49767842 -3.16015625 36.5625 C1.81119652 41.81341539 4.06349364 48.13487429 4.375 55.3125 C3.97500159 64.84579554 1.5963566 73.01006604 -5 80 C-5.70189453 80.79664063 -5.70189453 80.79664063 -6.41796875 81.609375 C-18.65132728 93.8112853 -40.23733028 95.22966381 -56.5 95.375 C-79.43525047 95.1914336 -102.73910264 89.84059824 -122 77 C-120.70122254 73.41792608 -119.1585035 70.58148845 -116.8828125 67.53125 C-115.97208984 66.30341797 -115.97208984 66.30341797 -115.04296875 65.05078125 C-114.41003906 64.20902344 -113.77710938 63.36726563 -113.125 62.5 C-112.49980469 61.65824219 -111.87460938 60.81648438 -111.23046875 59.94921875 C-108.22140834 55.90957105 -105.18421579 51.90426459 -102 48 C-98.69859408 49.26708889 -95.61235064 50.70157859 -92.5 52.375 C-78.33359492 59.48968344 -60.78723432 63.79588902 -45.3125 58.8125 C-42.69603903 57.13238301 -42.69603903 57.13238301 -42.125 53.8125 C-42.08375 52.884375 -42.0425 51.95625 -42 51 C-46.40977401 47.61656393 -50.02741238 47.81546982 -55.3125 48.3125 C-57.00875452 48.43354162 -58.70540215 48.54916213 -60.40234375 48.66015625 C-61.30452637 48.71961426 -62.20670898 48.77907227 -63.13623047 48.84033203 C-99.27719577 50.8553526 -99.27719577 50.8553526 -113 40 C-117.91031241 35.2749824 -119.45544409 29.67080996 -120 23 C-120.10918862 13.20032169 -117.3877475 6.35628683 -111 -1 C-82.03051432 -24.53459078 -29.92824787 -18.90676737 0 0 Z " fill="#3A3A3A" transform="translate(1974,136)"/>
<path d="M0 0 C8.79070832 6.31008516 13.50845634 15.74905438 15.25 26.3125 C15.36448485 28.83530717 15.43435623 31.33339103 15.45532227 33.85668945 C15.46522186 34.59869095 15.47512146 35.34069244 15.48532104 36.10517883 C15.51678034 38.54534775 15.54163154 40.98553609 15.56640625 43.42578125 C15.58698924 45.12257885 15.60798606 46.81937148 15.62937927 48.51615906 C15.68446104 52.97291018 15.73393136 57.4297065 15.78222656 61.88653564 C15.84139654 67.23891371 15.90754777 72.5912095 15.97252655 77.94351959 C16.07036115 86.06646264 16.15933676 94.18945949 16.25 102.3125 C1.73 102.3125 -12.79 102.3125 -27.75 102.3125 C-27.71519531 98.37441406 -27.68039062 94.43632812 -27.64453125 90.37890625 C-27.62110564 86.54631271 -27.60290609 82.71372727 -27.58520508 78.88110352 C-27.5718603 76.22630224 -27.54971989 73.57199147 -27.52368164 70.91723633 C-27.48711327 67.09189748 -27.47023072 63.26688858 -27.45703125 59.44140625 C-27.44154739 58.26292618 -27.42606354 57.08444611 -27.41011047 55.87025452 C-27.40855537 48.1803928 -27.64865971 40.75843366 -33 34.8125 C-36.41790452 32.94818844 -38.85193468 32.38088711 -42.75 32.3125 C-47.46131266 33.97531623 -50.13316824 36.07142784 -52.75 40.3125 C-55.74945113 47.74825574 -56.1561703 54.72567042 -56.04296875 62.6640625 C-56.03660149 64.37412979 -56.03660149 64.37412979 -56.03010559 66.1187439 C-56.01344334 69.72524613 -55.97581395 73.33116943 -55.9375 76.9375 C-55.92243709 79.39712729 -55.90875151 81.85676343 -55.89648438 84.31640625 C-55.86614505 90.31550138 -55.80739787 96.31336011 -55.75 102.3125 C-71.26 102.3125 -86.77 102.3125 -102.75 102.3125 C-102.75 67.3325 -102.75 32.3525 -102.75 -3.6875 C-89.55 -3.6875 -76.35 -3.6875 -62.75 -3.6875 C-60.275 8.1925 -60.275 8.1925 -57.75 20.3125 C-56.38875 17.4971875 -56.38875 17.4971875 -55 14.625 C-50.44644081 5.20741168 -44.37338342 -0.65577545 -34.625 -4.5625 C-22.95141663 -7.99710947 -10.28921609 -6.27266164 0 0 Z " fill="#3A3A3A" transform="translate(918.75,126.6875)"/>
<path d="M0 0 C37.29 0 74.58 0 113 0 C113 11.22 113 22.44 113 34 C105.82223172 41.10808121 105.82223172 41.10808121 102.390625 42.2265625 C97.61436289 44.03408317 93.88711637 46.71463485 89.8125 49.75 C88.40226707 50.75615614 86.98943835 51.75868258 85.57421875 52.7578125 C84.84380371 53.27633789 84.11338867 53.79486328 83.36083984 54.32910156 C78.96012316 57.44373497 74.54219396 60.53380119 70.125 63.625 C69.26237549 64.22924805 68.39975098 64.83349609 67.51098633 65.45605469 C66.30285278 66.30151855 66.30285278 66.30151855 65.0703125 67.1640625 C64.35633301 67.66373535 63.64235352 68.1634082 62.90673828 68.67822266 C61.2834896 69.80348109 59.6434084 70.9043944 58 72 C58.73186523 71.96970703 59.46373047 71.93941406 60.21777344 71.90820312 C78.50456044 71.16922821 96.69577391 70.90613217 115 71 C114.34 82.55 113.68 94.1 113 106 C76.04 106 39.08 106 1 106 C1 94.78 1 83.56 1 72 C8.08785954 65.53753983 8.08785954 65.53753983 11.53515625 64.62109375 C16.68853892 62.93277982 20.53257011 60.01208168 24.8125 56.75 C26.3161241 55.64367694 27.82135229 54.53953093 29.328125 53.4375 C30.08673828 52.87804687 30.84535156 52.31859375 31.62695312 51.7421875 C35.75049546 48.71486259 39.90919787 45.73628946 44.0625 42.75 C45.57494911 41.66247335 47.08673306 40.57402065 48.59765625 39.484375 C49.23195557 39.02772461 49.86625488 38.57107422 50.51977539 38.10058594 C51.97176596 37.07674551 51.97176596 37.07674551 53 36 C42.29810393 35.88109004 31.65465271 36.06423097 20.96630859 36.64428711 C14.27870686 36.99459006 7.7255352 37 1 37 C0.67 24.79 0.34 12.58 0 0 Z " fill="#3A3A3A" transform="translate(1369,123)"/>
<path d="M0 0 C-0.62429434 8.89619435 -1.71028382 17.67759363 -3 26.5 C-3.17789063 27.7478125 -3.35578125 28.995625 -3.5390625 30.28125 C-4.97945221 40.25648621 -4.97945221 40.25648621 -6 44 C-7.3125 43.70833333 -8.625 43.41666667 -9.9375 43.125 C-10.76378906 42.94453125 -11.59007812 42.7640625 -12.44140625 42.578125 C-14.038308 42.21729835 -15.63075934 41.83535735 -17.21484375 41.421875 C-25.45933241 39.33466268 -33.74512595 38.36985868 -41.34765625 42.80078125 C-45.82079917 46.04724668 -47.64453872 49.76504098 -49 55 C-49.32978076 58.9119183 -49.37226787 62.81790118 -49.4140625 66.7421875 C-49.43342865 67.86569611 -49.4527948 68.98920471 -49.4727478 70.14675903 C-49.53235875 73.72276298 -49.57885548 77.29879943 -49.625 80.875 C-49.66319674 83.30470126 -49.70224946 85.73438923 -49.7421875 88.1640625 C-49.83965048 94.10930445 -49.91936746 100.05441077 -50 106 C-65.51 106 -81.02 106 -97 106 C-96.7525 99.68875 -96.7525 99.68875 -96.5 93.25 C-95.42886138 62.16317697 -95.78135977 31.07532584 -97 0 C-83.8 0 -70.6 0 -57 0 C-55 8 -53 16 -51 24 C-50.731875 23.3709375 -50.46375 22.741875 -50.1875 22.09375 C-45.87351989 12.67110923 -40.14913069 6.28164781 -30.62890625 1.96484375 C-20.8913491 -1.60896994 -10.11406191 -2.12520374 0 0 Z " fill="#3A3A3A" transform="translate(682,123)"/>
<path d="M0 0 C-2.97 21.285 -2.97 21.285 -6 43 C-9.99810358 44.33270119 -11.99045155 43.28261874 -16 42.0625 C-23.60913055 39.89488933 -31.20642363 38.32412599 -38.875 41.1875 C-43.97145524 44.14344404 -47.3251759 47.27768434 -49 53 C-50.22507118 58.6203943 -50.12739672 64.14624548 -50.09765625 69.8671875 C-50.09664917 70.78508057 -50.09564209 71.70297363 -50.09460449 72.64868164 C-50.08939659 76.05746725 -50.0754354 79.46623496 -50.0625 82.875 C-50.041875 90.50625 -50.02125 98.1375 -50 106 C-65.51 106 -81.02 106 -97 106 C-97 71.02 -97 36.04 -97 0 C-83.8 0 -70.6 0 -57 0 C-54.525 11.385 -54.525 11.385 -52 23 C-50.83589089 21.25383634 -49.68198055 19.50062352 -48.5546875 17.73046875 C-41.38699347 6.87891337 -33.24903686 2.01797168 -20.5625 -0.75 C-13.5616163 -1.24129008 -6.89817258 -1.37963452 0 0 Z " fill="#3A3A3A" transform="translate(1721,123)"/>
<path d="M0 0 C16.83 0 33.66 0 51 0 C51.08021762 24.1945251 51.08021762 24.1945251 51.09765625 34.61914062 C51.10954711 41.69347181 51.12351412 48.76775055 51.15087891 55.84204102 C51.17283369 61.55441037 51.18461564 67.26672336 51.18975449 72.9791317 C51.19341007 75.14327568 51.20054653 77.30741708 51.21146011 79.47153664 C51.26161394 89.84256208 51.18541759 100.13027131 50.12841797 110.45581055 C50.014994 111.57244819 50.014994 111.57244819 49.89927864 112.71164417 C48.4697927 125.01502113 43.9482234 136.20734723 38 147 C34.86302983 144.0318354 32.38431915 140.88434302 29.875 137.375 C21.88768209 126.56286433 21.88768209 126.56286433 11.01623535 118.99528503 C5.62372279 116.30056609 0.23819463 113.48349125 -1.87939453 107.52594376 C-3.21268514 100.02725162 -2.6857135 92.43263845 -2.34375 84.86328125 C-2.29141206 82.41291611 -2.24623252 79.96238855 -2.20788574 77.51176453 C-2.08827299 71.08872456 -1.87205038 64.67250659 -1.6350708 58.25286865 C-1.37055204 50.53616436 -1.22703581 42.81636199 -1.06306458 35.09699249 C-0.80098339 23.39303369 -0.3861897 11.70347899 0 0 Z " fill="#3C986F" transform="translate(164,2)"/>
<path d="M0 0 C16.17 0 32.34 0 49 0 C49.94032875 27.13138125 49.94032875 27.13138125 50.24804688 38.7109375 C50.45823402 46.60853257 50.68051328 54.50446649 50.9753418 62.39941406 C51.21232454 68.76586584 51.39460717 75.13176677 51.53928566 81.5009613 C51.60400016 83.92878326 51.6883107 86.35616556 51.79263878 88.78260803 C52.5921661 107.81635717 52.5921661 107.81635717 48.68496704 113.17504883 C45.85519343 115.25564142 43.20982811 116.60337862 40 118 C29.68606534 125.37442607 21.81650423 134.01060035 15.41015625 144.9453125 C14.94480469 145.62335938 14.47945312 146.30140625 14 147 C13.34 147 12.68 147 12 147 C4.33558211 131.82186906 -0.17423495 117.29157938 -0.11352539 100.12939453 C-0.11367142 99.04587204 -0.11381744 97.96234955 -0.1139679 96.84599304 C-0.11327284 93.27491229 -0.10549947 89.70388411 -0.09765625 86.1328125 C-0.09579063 83.65274077 -0.0943674 81.17266867 -0.09336853 78.69259644 C-0.08955474 72.17259703 -0.07973414 65.65261998 -0.06866455 59.13262939 C-0.05598784 51.30567049 -0.05204277 43.47869966 -0.04621124 35.6517334 C-0.03652181 23.76780673 -0.01735725 11.88392909 0 0 Z " fill="#3D986F" transform="translate(19,2)"/>
<path d="M0 0 C15.51 0 31.02 0 47 0 C47 34.98 47 69.96 47 106 C31.49 106 15.98 106 0 106 C0.165 100.92625 0.33 95.8525 0.5 90.625 C1.39459052 60.37364054 0.92363484 30.24904112 0 0 Z " fill="#3A3A3A" transform="translate(944,123)"/>
<path d="M0 0 C15.84 0 31.68 0 48 0 C47.835 3.96 47.67 7.92 47.5 12 C46.36984615 43.31064339 46.57750118 74.70502586 48 106 C32.49 106 16.98 106 1 106 C1.01160156 100.52664062 1.02320313 95.05328125 1.03515625 89.4140625 C1.04028298 85.88671752 1.0450981 82.35937732 1.04882812 78.83203125 C1.05473997 73.26838188 1.06162804 67.70474939 1.07543945 62.14111328 C1.12563419 41.39254754 0.98896822 20.72939692 0 0 Z " fill="#3A3A3A" transform="translate(1313,123)"/>
<path d="M0 0 C9.21986246 6.22122973 16.22728204 14.6477401 20.01953125 25.203125 C20.1484375 28 20.1484375 28 20.01953125 30.203125 C-3.96314146 42.3360117 -30.99231257 45.17167911 -56.7890625 36.99609375 C-62.39699346 35.06453793 -67.70903625 32.93000136 -72.98046875 30.203125 C-72.57706737 21.12659391 -67.29925091 12.52190716 -60.98046875 6.203125 C-43.00344913 -8.88795167 -20.52526973 -12.37434348 0 0 Z " fill="#3D986F" transform="translate(142.98046875,156.796875)"/>
<path d="M0 0 C4.65052176 4.97497677 6.88316446 10.10301741 7.125 16.9375 C6.80835577 23.9691857 4.63786249 29.77903861 -0.3125 34.875 C-5.92321081 38.80249757 -10.91005904 39.07856998 -17.625 39.125 C-18.35912109 39.145625 -19.09324219 39.16625 -19.84960938 39.1875 C-27.18644152 39.23958044 -32.9446195 37.09377271 -38.3125 31.875 C-42.11966983 25.34842315 -43.08070601 19.34854706 -42.3125 11.875 C-40.55660522 5.26395039 -37.18849059 0.42708448 -31.3125 -3.125 C-20.69425405 -7.01835685 -9.52102677 -6.10782849 0 0 Z " fill="#3A3A3A" transform="translate(1354.3125,73.125)"/>
<path d="M0 0 C4.91025409 4.34644621 7.09164763 9.13754422 7.99609375 15.59375 C8.14904286 23.01178174 6.56127408 28.5297846 1.74609375 34.28125 C-4.11042269 39.20604791 -9.53487198 40.10000264 -16.94140625 40.03125 C-17.70130859 40.05123047 -18.46121094 40.07121094 -19.24414062 40.09179688 C-25.49423642 40.08645947 -30.8623709 38.49224106 -35.53442383 34.18164062 C-40.85249047 28.14799611 -41.46186294 22.60475738 -41.3125 14.8203125 C-40.709226 8.51266282 -38.25843359 4.50805271 -33.69140625 0.21875 C-24.5579011 -6.87224134 -9.42269703 -6.61241897 0 0 Z " fill="#3A3A3A" transform="translate(984.00390625,72.40625)"/>
</svg>
